<svg width="100" height="28" viewBox="0 0 100 28" fill="none" xmlns="http://www.w3.org/2000/svg">
<path d="M50 0C42.272 0 36 6.272 36 14C36 16.968 36.924 19.712 38.492 21.98L37.036 27.104L42.328 25.704C44.54 27.16 47.172 28 50 28C57.728 28 64 21.728 64 14C64 6.272 57.728 0 50 0ZM58.512 18.508C58.064 21.42 55.348 22.484 52.996 21.784C48.04 20.328 44.456 17.192 42.104 12.628C41.516 11.508 41.32 10.248 41.572 8.96C41.796 7.812 42.496 6.944 43.364 6.216C43.7 5.936 44.092 5.852 44.596 5.88C45.352 5.852 45.744 6.104 46.024 7.056C46.304 8.036 46.808 8.932 47.228 9.884C47.396 10.304 47.368 10.64 47.06 10.948C46.696 11.34 46.332 11.788 45.968 12.18C45.744 12.432 45.716 12.656 45.884 12.964C47.256 15.4 49.272 17.052 51.876 18.032C52.184 18.144 52.352 18.004 52.52 17.808C52.912 17.276 53.332 16.772 53.724 16.24C54.004 15.82 54.34 15.764 54.788 15.988C55.852 16.492 56.944 16.996 58.036 17.5C58.54 17.752 58.596 17.92 58.512 18.508Z" fill="#6C60A9"/>
<path d="M90.5081 9.24071C90.3121 9.26871 90.1721 9.38071 90.0321 9.46471C87.2321 11.2287 84.4321 12.9927 81.6321 14.7567C81.4081 14.8967 81.3241 15.0367 81.4361 15.3167C81.8281 16.4927 82.1921 17.6407 82.5841 18.8167C82.6401 19.0127 82.7241 19.2087 82.7801 19.4327C82.8641 19.3487 82.8641 19.2647 82.8641 19.1807C82.9481 18.4247 83.0321 17.6407 83.0601 16.8847C83.0881 16.5487 83.2281 16.2967 83.4801 16.0727C85.8321 13.9447 88.1841 11.8447 90.5361 9.71671C90.5921 9.66071 90.6481 9.63271 90.6761 9.57671C90.7321 9.49271 90.8441 9.40871 90.7881 9.29671C90.7601 9.21271 90.6201 9.21271 90.5081 9.24071Z" fill="#6C60A9"/>
<path d="M86 0C78.272 0 72 6.272 72 14C72 21.728 78.272 28 86 28C93.728 28 100 21.728 100 14C100 6.272 93.728 0 86 0ZM93.644 9.268C92.86 13.02 92.048 16.744 91.264 20.496C91.04 21.588 90.452 21.812 89.556 21.168C88.324 20.272 87.092 19.348 85.86 18.452C85.664 18.312 85.58 18.34 85.412 18.48C84.824 19.068 84.236 19.628 83.648 20.188C83.452 20.384 83.256 20.524 82.976 20.58C82.584 20.636 82.416 20.552 82.276 20.16C81.8 18.676 81.324 17.192 80.848 15.68C80.736 15.344 80.568 15.176 80.232 15.064C79.112 14.728 78.02 14.392 76.928 14.028C76.704 13.972 76.48 13.888 76.284 13.748C76.032 13.58 76.004 13.328 76.228 13.104C76.452 12.88 76.732 12.74 77.04 12.628C82.276 10.64 87.484 8.624 92.692 6.636C92.776 6.608 92.86 6.58 92.944 6.552C93.532 6.384 93.98 6.72 93.98 7.392C93.952 7.98 93.784 8.624 93.644 9.268Z" fill="#6C60A9"/>
<path fill-rule="evenodd" clip-rule="evenodd" d="M14 0C6.272 0 0 6.272 0 14C0 21.728 6.272 28 14 28C21.728 28 28 21.728 28 14C28 6.272 21.728 0 14 0ZM22.764 17.584C22.764 20.44 20.44 22.764 17.584 22.764H10.416C7.56 22.764 5.236 20.44 5.236 17.584V10.416C5.236 7.56 7.56 5.236 10.416 5.236H17.584C20.44 5.236 22.764 7.56 22.764 10.416V17.584ZM17.5832 6.91615H10.4152C8.48323 6.91615 6.91523 8.48415 6.91523 10.4161V17.5841C6.91523 19.5161 8.48323 21.0841 10.4152 21.0841H17.5832C19.5152 21.0841 21.0832 19.5161 21.0832 17.5841V10.4161C21.0552 8.48415 19.4872 6.91615 17.5832 6.91615ZM13.9992 18.7041C11.5072 18.7041 9.49124 16.6881 9.49124 14.1961C9.49124 11.7041 11.5072 9.68814 13.9992 9.68814C16.4912 9.68814 18.5072 11.7041 18.5072 14.1961C18.5072 16.6881 16.4912 18.7041 13.9992 18.7041ZM18.5072 10.3321C17.9192 10.3321 17.4432 9.85614 17.4432 9.26814C17.4432 8.68015 17.9192 8.20415 18.5072 8.20415C19.0952 8.20415 19.5712 8.68015 19.5712 9.26814C19.5712 9.85614 19.0952 10.3321 18.5072 10.3321ZM16.7986 14.1969C16.7986 15.7433 15.545 16.9969 13.9986 16.9969C12.4522 16.9969 11.1986 15.7433 11.1986 14.1969C11.1986 12.6505 12.4522 11.3969 13.9986 11.3969C15.545 11.3969 16.7986 12.6505 16.7986 14.1969Z" fill="#6C60A9"/>
</svg>
