<svg id="Слой_1" data-name="Слой 1" xmlns="http://www.w3.org/2000/svg" viewBox="0 0 20 25"><defs><style>.cls-1{fill:#fff;}</style></defs><title>Group2</title><path class="cls-1" d="M16.745,13.1174a5.54651,5.54651,0,0,1,2.6114-4.64073,5.55726,5.55726,0,0,0-4.3943-2.43606c-1.849-.19488-3.6439,1.12668-4.5864,1.12668S7.9744,6.065,6.40757,6.09542A5.84886,5.84886,0,0,0,1.479,9.1405C-.65214,12.8799.9387,18.3793,2.97977,21.4c1.02054,1.486,2.21516,3.1364,3.776,3.0451s2.0951-.9866,3.938-.9866,2.3593.9866,3.9561.95,2.6714-1.486,3.6559-2.9781a12.35173,12.35173,0,0,0,1.6509-3.3983A5.35535,5.35535,0,0,1,16.745,13.1174Z"/><path class="cls-1" d="M13.7369,4.07959A5.48569,5.48569,0,0,0,14.9375.18189a5.37691,5.37691,0,0,0-3.5298,1.827A5.22993,5.22993,0,0,0,10.147,5.76656,4.50645,4.50645,0,0,0,13.7369,4.07959Z"/></svg>