<?xml version="1.0" encoding="utf-8"?>
<!-- Generator: Adobe Illustrator 21.1.0, SVG Export Plug-In . SVG Version: 6.00 Build 0)  -->
<svg version="1.1" id="Слой_1" xmlns="http://www.w3.org/2000/svg" xmlns:xlink="http://www.w3.org/1999/xlink" x="0px" y="0px"
	 viewBox="0 0 75 17" style="enable-background:new 0 0 75 17;" xml:space="preserve">
<style type="text/css">
	.st0{fill:#FFFFFF;}
</style>
<path class="st0" d="M8,12.6L7.3,10H3.5l-0.7,2.7H0.5L4.1,1h2.7l3.6,11.6H8z M3.9,8.3h3L5.4,2.7L3.9,8.3z"/>
<path class="st0" d="M16.2,3.5c1.1,0,1.9,0.4,2.5,1.2c0.5,0.8,0.8,2,0.8,3.4c0,0.9-0.1,1.7-0.4,2.5c-0.3,0.7-0.7,1.3-1.2,1.7
	c-0.5,0.4-1.2,0.6-1.9,0.6c-0.9,0-1.7-0.3-2.2-1v4.1l-2.1,0.2V3.8h1.9l0.1,1.1c0.3-0.4,0.7-0.8,1.2-1C15.3,3.6,15.7,3.5,16.2,3.5z
	 M15.4,11.3c1.2,0,1.9-1,1.9-3.1c0-1.1-0.1-1.9-0.4-2.4c-0.3-0.5-0.7-0.7-1.3-0.7c-0.4,0-0.7,0.1-1,0.3C14.3,5.7,14,6,13.8,6.3v4
	C14.2,10.9,14.7,11.3,15.4,11.3z"/>
<path class="st0" d="M26.2,3.5c1.1,0,1.9,0.4,2.5,1.2c0.5,0.8,0.8,2,0.8,3.4c0,0.9-0.1,1.7-0.4,2.5c-0.3,0.7-0.7,1.3-1.2,1.7
	c-0.5,0.4-1.2,0.6-1.9,0.6c-0.9,0-1.7-0.3-2.2-1v4.1l-2.1,0.2V3.8h1.9l0.1,1.1c0.3-0.4,0.7-0.8,1.2-1C25.3,3.6,25.7,3.5,26.2,3.5z
	 M25.4,11.3c1.2,0,1.9-1,1.9-3.1c0-1.1-0.1-1.9-0.4-2.4c-0.3-0.5-0.7-0.7-1.3-0.7c-0.4,0-0.7,0.1-1,0.3C24.3,5.7,24,6,23.8,6.3v4
	C24.2,10.9,24.7,11.3,25.4,11.3z"/>
<path class="st0" d="M39.2,0.8c0.8,0,1.5,0.1,2.1,0.4c0.6,0.2,1.2,0.6,1.7,1.1L42,3.5c-0.4-0.3-0.8-0.6-1.3-0.8
	c-0.4-0.2-0.9-0.2-1.3-0.2c-0.5,0-1,0.1-1.3,0.4c-0.3,0.2-0.5,0.6-0.5,1c0,0.3,0.1,0.5,0.2,0.7c0.1,0.2,0.4,0.4,0.7,0.5
	c0.3,0.2,0.8,0.4,1.5,0.6C41.1,6,42,6.5,42.5,7c0.6,0.5,0.9,1.3,0.9,2.3c0,0.7-0.2,1.3-0.5,1.8c-0.3,0.5-0.9,1-1.5,1.3
	c-0.7,0.3-1.4,0.5-2.4,0.5c-0.9,0-1.7-0.1-2.4-0.4c-0.7-0.3-1.3-0.7-1.8-1.2L36,10c0.4,0.4,0.9,0.7,1.4,0.9c0.5,0.2,1,0.3,1.6,0.3
	c0.6,0,1.2-0.2,1.5-0.5c0.4-0.3,0.6-0.7,0.6-1.3c0-0.3-0.1-0.6-0.2-0.8c-0.1-0.2-0.4-0.4-0.7-0.6c-0.3-0.2-0.8-0.4-1.4-0.6
	c-1.2-0.4-2.1-0.8-2.7-1.4c-0.5-0.5-0.8-1.2-0.8-2.1c0-0.6,0.2-1.2,0.5-1.7c0.3-0.5,0.8-0.9,1.4-1.1C37.8,0.9,38.5,0.8,39.2,0.8z"/>
<path class="st0" d="M50.3,12.2c-0.3,0.2-0.7,0.4-1.1,0.5c-0.4,0.1-0.8,0.2-1.2,0.2c-0.9,0-1.5-0.3-2-0.7c-0.4-0.5-0.7-1.2-0.7-2.2
	V5.3H44V3.8h1.4v-2l2.1-0.3v2.2h2.1l-0.2,1.5h-1.8v4.6c0,0.4,0.1,0.8,0.2,0.9c0.2,0.2,0.4,0.3,0.7,0.3c0.3,0,0.7-0.1,1.1-0.3
	L50.3,12.2z"/>
<path class="st0" d="M54.9,3.5c1.3,0,2.3,0.4,3.1,1.3c0.7,0.8,1.1,2,1.1,3.4c0,0.9-0.2,1.8-0.5,2.5c-0.3,0.7-0.8,1.3-1.4,1.6
	c-0.6,0.4-1.4,0.6-2.2,0.6c-1.3,0-2.3-0.4-3.1-1.2c-0.7-0.8-1.1-2-1.1-3.5c0-0.9,0.2-1.7,0.5-2.5C51.5,5,52,4.5,52.6,4.1
	C53.3,3.7,54,3.5,54.9,3.5z M54.9,5.1c-1.3,0-1.9,1-1.9,3.1c0,1.1,0.2,1.8,0.5,2.3c0.3,0.5,0.8,0.7,1.4,0.7s1.1-0.3,1.4-0.8
	c0.3-0.5,0.5-1.3,0.5-2.3s-0.2-1.8-0.5-2.3C56,5.4,55.5,5.1,54.9,5.1z"/>
<path class="st0" d="M65.4,3.5c0.3,0,0.6,0,0.9,0.1l-0.4,2.1c-0.3-0.1-0.5-0.1-0.8-0.1c-0.5,0-0.9,0.2-1.2,0.6
	c-0.3,0.4-0.5,0.9-0.7,1.7v4.7H61V3.8h1.9l0.2,1.7c0.2-0.6,0.5-1.1,0.9-1.5C64.4,3.7,64.9,3.5,65.4,3.5z"/>
<path class="st0" d="M74.4,8c0,0.1,0,0.4-0.1,0.9h-5.6c0.1,0.9,0.3,1.5,0.7,1.8c0.4,0.4,0.9,0.6,1.5,0.6c0.4,0,0.8-0.1,1.1-0.2
	c0.3-0.1,0.7-0.3,1.1-0.6l0.9,1.2c-1,0.8-2.1,1.2-3.3,1.2c-1.4,0-2.4-0.4-3.1-1.2c-0.7-0.8-1.1-2-1.1-3.4c0-0.9,0.2-1.7,0.5-2.4
	c0.3-0.7,0.8-1.3,1.4-1.7c0.6-0.4,1.3-0.6,2.1-0.6c1.2,0,2.2,0.4,2.9,1.2C74.1,5.5,74.4,6.6,74.4,8z M72.3,7.4
	c0-1.6-0.6-2.3-1.7-2.3c-0.5,0-0.9,0.2-1.2,0.6c-0.3,0.4-0.5,1-0.5,1.8h3.5V7.4z"/>
</svg>
