<svg width="90" height="17" viewBox="0 0 90 17" fill="none" xmlns="http://www.w3.org/2000/svg">
<path d="M5.78218 0.873273C6.54343 0.873273 7.21513 0.99082 7.79726 1.22591C8.3906 1.44981 8.95034 1.78566 9.4765 2.23346L8.28424 3.4761C7.87003 3.15144 7.47821 2.91635 7.10878 2.77081C6.75054 2.62528 6.33073 2.55251 5.84935 2.55251C4.95375 2.55251 4.22048 2.91075 3.64954 3.62723C3.0786 4.3437 2.79313 5.44081 2.79313 6.91854C2.79313 8.46344 3.01703 9.57733 3.46482 10.2602C3.92382 10.9431 4.6179 11.2846 5.54708 11.2846C6.25236 11.2846 6.86808 11.1334 7.39425 10.8312V7.80854H5.64784L5.41274 6.16288H9.57726V11.8387C8.32343 12.6 6.99123 12.9806 5.58067 12.9806C3.92382 12.9806 2.65319 12.4656 1.76879 11.4357C0.895587 10.4058 0.458984 8.90004 0.458984 6.91854C0.458984 5.65351 0.694078 4.5676 1.16427 3.66081C1.64565 2.74283 2.28936 2.04874 3.09539 1.57855C3.90143 1.10837 4.79702 0.873273 5.78218 0.873273Z" fill="white"/>
<path d="M15.3655 3.59364C16.6753 3.59364 17.6941 4.01345 18.4217 4.85307C19.1606 5.6815 19.53 6.82338 19.53 8.27872C19.53 9.2079 19.3621 10.0307 19.0263 10.7472C18.6904 11.4525 18.209 12.001 17.5821 12.3929C16.9552 12.7847 16.2107 12.9806 15.3487 12.9806C14.0389 12.9806 13.0146 12.5664 12.2757 11.738C11.5369 10.8983 11.1674 9.74526 11.1674 8.27872C11.1674 7.34954 11.3353 6.53231 11.6712 5.82703C12.007 5.12175 12.4884 4.5732 13.1153 4.18138C13.7534 3.78955 14.5035 3.59364 15.3655 3.59364ZM15.3655 5.22251C14.0781 5.22251 13.4344 6.24124 13.4344 8.27872C13.4344 9.33105 13.5911 10.1091 13.9046 10.6129C14.2292 11.1054 14.7106 11.3517 15.3487 11.3517C15.9868 11.3517 16.4626 11.0998 16.7761 10.5961C17.1007 10.0923 17.2631 9.31985 17.2631 8.27872C17.2631 7.23759 17.1007 6.47074 16.7761 5.97816C16.4626 5.47439 15.9924 5.22251 15.3655 5.22251Z" fill="white"/>
<path d="M25.172 3.59364C26.4818 3.59364 27.5006 4.01345 28.2282 4.85307C28.9671 5.6815 29.3365 6.82338 29.3365 8.27872C29.3365 9.2079 29.1686 10.0307 28.8328 10.7472C28.4969 11.4525 28.0155 12.001 27.3886 12.3929C26.7617 12.7847 26.0172 12.9806 25.1552 12.9806C23.8454 12.9806 22.8211 12.5664 22.0822 11.738C21.3434 10.8983 20.9739 9.74526 20.9739 8.27872C20.9739 7.34954 21.1418 6.53231 21.4777 5.82703C21.8135 5.12175 22.2949 4.5732 22.9218 4.18138C23.5599 3.78955 24.31 3.59364 25.172 3.59364ZM25.172 5.22251C23.8846 5.22251 23.2409 6.24124 23.2409 8.27872C23.2409 9.33105 23.3976 10.1091 23.7111 10.6129C24.0357 11.1054 24.5171 11.3517 25.1552 11.3517C25.7933 11.3517 26.2691 11.0998 26.5826 10.5961C26.9072 10.0923 27.0696 9.31985 27.0696 8.27872C27.0696 7.23759 26.9072 6.47074 26.5826 5.97816C26.2691 5.47439 25.7989 5.22251 25.172 5.22251Z" fill="white"/>
<path d="M39.0759 4.31572C38.5049 4.51722 37.6485 4.61798 36.5066 4.61798C37.0552 4.86427 37.4582 5.17213 37.7157 5.54156C37.9844 5.8998 38.1187 6.35319 38.1187 6.90175C38.1187 7.48388 37.9732 7.99885 37.6821 8.44665C37.4022 8.89444 36.988 9.24708 36.4395 9.50457C35.9021 9.76205 35.2696 9.89079 34.5419 9.89079C34.1389 9.89079 33.7863 9.84601 33.484 9.75645C33.2377 9.92438 33.1146 10.1427 33.1146 10.4114C33.1146 10.8256 33.4728 11.0327 34.1893 11.0327H35.5495C36.1988 11.0327 36.7641 11.139 37.2455 11.3517C37.7381 11.5644 38.1187 11.8667 38.3874 12.2585C38.6561 12.6391 38.7904 13.0702 38.7904 13.5515C38.7904 14.4471 38.4098 15.1412 37.6485 15.6338C36.8873 16.1376 35.7902 16.3895 34.3572 16.3895C33.3273 16.3895 32.5156 16.2831 31.9223 16.0704C31.3402 15.8577 30.926 15.5498 30.6797 15.1468C30.4334 14.7438 30.3102 14.2288 30.3102 13.6019H32.2414C32.2414 13.9154 32.2973 14.1617 32.4093 14.3408C32.5324 14.5199 32.7451 14.6542 33.0474 14.7438C33.3609 14.8334 33.8086 14.8781 34.3908 14.8781C35.208 14.8781 35.7846 14.7774 36.1204 14.5759C36.4563 14.3744 36.6242 14.0833 36.6242 13.7027C36.6242 13.3668 36.4954 13.1037 36.2379 12.9134C35.9805 12.7343 35.6054 12.6447 35.1129 12.6447H33.7695C32.9298 12.6447 32.2973 12.4824 31.8719 12.1578C31.4465 11.8331 31.2338 11.4245 31.2338 10.9319C31.2338 10.6185 31.3234 10.3162 31.5025 10.0251C31.6928 9.73406 31.9503 9.48777 32.2749 9.28627C31.7376 9.00639 31.3402 8.66495 31.0827 8.26193C30.8364 7.84772 30.7132 7.35514 30.7132 6.7842C30.7132 6.14609 30.87 5.58634 31.1834 5.10496C31.4969 4.62358 31.9279 4.25414 32.4765 3.99666C33.0362 3.72798 33.6743 3.59364 34.3908 3.59364C35.3312 3.61603 36.0868 3.54886 36.6578 3.39213C37.2399 3.22421 37.8668 2.96113 38.5385 2.60289L39.0759 4.31572ZM34.4244 5.05458C33.943 5.05458 33.5624 5.21131 33.2825 5.52477C33.0138 5.82703 32.8795 6.23565 32.8795 6.75061C32.8795 7.28797 33.0194 7.71338 33.2993 8.02684C33.5792 8.34029 33.9654 8.49702 34.458 8.49702C34.9729 8.49702 35.3647 8.34589 35.6334 8.04363C35.9021 7.73017 36.0364 7.29357 36.0364 6.73382C36.0364 5.61433 35.4991 5.05458 34.4244 5.05458Z" fill="white"/>
<path d="M42.4698 12.9806C41.7869 12.9806 41.2495 12.7847 40.8577 12.3929C40.4771 11.9898 40.2868 11.4245 40.2868 10.6968V0.285539L42.4362 0.0504456V10.6297C42.4362 11.0439 42.6041 11.251 42.94 11.251C43.1079 11.251 43.2758 11.223 43.4437 11.167L43.8971 12.6783C43.4493 12.8798 42.9735 12.9806 42.4698 12.9806Z" fill="white"/>
<path d="M52.5291 8.07721C52.5291 8.18916 52.5123 8.48023 52.4787 8.95042H46.9036C46.9708 9.81243 47.1947 10.4282 47.5753 10.7976C47.9559 11.167 48.4597 11.3517 49.0866 11.3517C49.4785 11.3517 49.8479 11.2902 50.1949 11.167C50.542 11.0327 50.9114 10.8312 51.3032 10.5625L52.1932 11.7883C51.2081 12.5832 50.111 12.9806 48.9019 12.9806C47.5473 12.9806 46.5006 12.5664 45.7617 11.738C45.0341 10.9095 44.6702 9.77884 44.6702 8.34589C44.6702 7.4391 44.827 6.62747 45.1404 5.91099C45.4539 5.18332 45.9073 4.61798 46.5006 4.21496C47.0939 3.80075 47.7992 3.59364 48.6164 3.59364C49.8591 3.59364 50.8218 3.99106 51.5047 4.7859C52.1876 5.56955 52.5291 6.66665 52.5291 8.07721ZM50.3964 7.45589C50.3964 5.8998 49.8199 5.12175 48.6668 5.12175C48.1407 5.12175 47.7264 5.31766 47.4242 5.70949C47.1331 6.09011 46.9596 6.70583 46.9036 7.55665H50.3964V7.45589Z" fill="white"/>
<path d="M62.1482 1.12516C63.6372 1.12516 64.7902 1.43302 65.6075 2.04874C66.4359 2.66446 66.8501 3.58805 66.8501 4.81949C66.8501 6.10691 66.4359 7.07527 65.6075 7.72457C64.779 8.36269 63.6763 8.68174 62.2994 8.68174H60.9392V12.7287H58.7226V1.12516H62.1482ZM62.1314 7.01929C62.9263 7.01929 63.5252 6.85697 63.9282 6.53231C64.3312 6.19647 64.5328 5.62552 64.5328 4.81949C64.5328 3.44251 63.7323 2.75402 62.1314 2.75402H60.9392V7.01929H62.1314Z" fill="white"/>
<path d="M70.5118 12.9806C69.8289 12.9806 69.2915 12.7847 68.8997 12.3929C68.5191 11.9898 68.3288 11.4245 68.3288 10.6968V0.285539L70.4782 0.0504456V10.6297C70.4782 11.0439 70.6461 11.251 70.982 11.251C71.1499 11.251 71.3178 11.223 71.4857 11.167L71.9391 12.6783C71.4913 12.8798 71.0155 12.9806 70.5118 12.9806Z" fill="white"/>
<path d="M79.849 10.3778C79.849 10.7248 79.8994 10.9823 80.0001 11.1502C80.1121 11.307 80.2856 11.4301 80.5207 11.5197L80.0673 12.947C79.5635 12.9022 79.1493 12.7791 78.8247 12.5776C78.5112 12.3761 78.2705 12.0682 78.1026 11.654C77.8003 12.1018 77.4197 12.4376 76.9607 12.6615C76.5129 12.8742 76.0091 12.9806 75.4494 12.9806C74.565 12.9806 73.8653 12.7287 73.3503 12.2249C72.8354 11.7212 72.5779 11.0607 72.5779 10.2434C72.5779 9.28067 72.9249 8.5474 73.619 8.04363C74.3243 7.52866 75.3262 7.27118 76.6248 7.27118H77.7331V6.76741C77.7331 6.19646 77.5988 5.79904 77.3301 5.57515C77.0726 5.34005 76.6528 5.22251 76.0707 5.22251C75.4214 5.22251 74.6377 5.37923 73.7198 5.69269L73.216 4.23175C74.3243 3.80635 75.399 3.59364 76.4401 3.59364C78.7127 3.59364 79.849 4.61238 79.849 6.64986V10.3778ZM76.0203 11.4189C76.748 11.4189 77.3189 11.0551 77.7331 10.3274V8.53061H76.8431C75.455 8.53061 74.7609 9.04558 74.7609 10.0755C74.7609 10.5009 74.8672 10.8312 75.0799 11.0663C75.2926 11.3014 75.6061 11.4189 76.0203 11.4189Z" fill="white"/>
<path d="M86.503 12.7623C86.1448 13.8594 85.6018 14.7102 84.8741 15.3147C84.1465 15.9305 83.1501 16.2887 81.8851 16.3895L81.6668 14.8278C82.2489 14.7382 82.7135 14.6095 83.0605 14.4415C83.4188 14.2848 83.7043 14.0721 83.917 13.8034C84.1297 13.5347 84.3256 13.1765 84.5047 12.7287H83.7658L80.9447 3.84553H83.2285L85.1596 11.3014L87.1747 3.84553H89.3913L86.503 12.7623Z" fill="white"/>
</svg>
